<svg width="25" height="24" viewBox="0 0 25 24" fill="none" xmlns="http://www.w3.org/2000/svg">
<path d="M14.3676 4.4541L21.1393 11.2041C21.2446 11.3086 21.328 11.4328 21.385 11.5696C21.442 11.7063 21.4713 11.8529 21.4713 12.001C21.4713 12.149 21.442 12.2957 21.385 12.4324C21.328 12.5691 21.2446 12.6933 21.1393 12.7979L14.3676 19.5479C14.1556 19.7592 13.8681 19.8779 13.5682 19.8779C13.2684 19.8779 12.9808 19.7592 12.7688 19.5479C12.5567 19.3365 12.4376 19.0499 12.4376 18.751C12.4376 18.4521 12.5567 18.1654 12.7688 17.9541L17.6134 13.125L3.7878 13.125C3.48847 13.125 3.2014 13.0065 2.98974 12.7955C2.77809 12.5846 2.65918 12.2984 2.65918 12C2.65918 11.7017 2.77809 11.4155 2.98974 11.2045C3.2014 10.9936 3.48847 10.875 3.7878 10.875L17.6134 10.875L12.7678 6.04598C12.5558 5.83463 12.4367 5.54799 12.4367 5.2491C12.4367 4.95022 12.5558 4.66357 12.7678 4.45223C12.9799 4.24088 13.2674 4.12215 13.5673 4.12215C13.8671 4.12215 14.1547 4.24088 14.3667 4.45223L14.3676 4.4541Z" fill="black"/>
</svg>
