<svg width="25" height="24" viewBox="0 0 25 24" fill="none" xmlns="http://www.w3.org/2000/svg">
<path d="M12.3984 4.0752C12.4636 4.0752 12.5333 4.0878 12.6094 4.12012L12.6885 4.15918C12.7423 4.18991 12.7879 4.23238 12.8262 4.2959L12.8623 4.36719L12.8633 4.36914L14.7383 8.81934L14.8555 9.09668L15.1553 9.12305L19.9834 9.5459C20.1482 9.57018 20.2299 9.61672 20.2695 9.65137C20.3332 9.70704 20.3879 9.78419 20.4287 9.89648C20.4629 9.99053 20.4698 10.0822 20.4482 10.1826C20.4323 10.2567 20.3908 10.3376 20.291 10.4268L16.6221 13.5967L16.3936 13.7939L16.4619 14.0889L17.5615 18.8135C17.5898 18.9365 17.5748 19.0145 17.5469 19.0732C17.4964 19.1794 17.4292 19.2633 17.3428 19.3301C17.2734 19.3837 17.191 19.4172 17.0811 19.4268C17.0004 19.4337 16.917 19.4176 16.8184 19.3545L16.5488 19.7754L16.8184 19.3535L16.8066 19.3467L12.6572 16.8467L12.3984 16.6914L12.1406 16.8467L7.99121 19.3467L8.24902 19.7754L7.99023 19.3467L7.98047 19.3535C7.88122 19.4167 7.79675 19.4336 7.71484 19.4268C7.60603 19.4176 7.525 19.3837 7.45605 19.3301C7.36869 19.2621 7.30046 19.1789 7.25 19.0732C7.22255 19.0157 7.20764 18.9373 7.23633 18.8125L7.23535 18.8115L8.33594 14.0889L8.4043 13.7939L8.17578 13.5967L4.50098 10.4219C4.40624 10.3345 4.36633 10.2548 4.35059 10.1816C4.33426 10.1056 4.33355 10.0349 4.34863 9.96484L4.36914 9.89551C4.40906 9.78502 4.46363 9.70802 4.52832 9.65137C4.56869 9.61606 4.64996 9.56952 4.8125 9.5459L9.64258 9.12305L9.94238 9.09668L10.0596 8.81934L11.9346 4.36914L11.9355 4.36719C11.9686 4.28809 12.009 4.23371 12.0576 4.19434L12.1094 4.15918C12.2172 4.0977 12.3116 4.07525 12.3984 4.0752Z" stroke="#444444"/>
</svg>
